<svg xmlns="http://www.w3.org/2000/svg" viewBox="0 0 267 68">
    <g fill="currentColor">
        <path d="M94.6 14.6h6c.8 0 1.6 0 2.5.1.9.1 1.8.2 2.7.5.9.3 1.8.7 2.6 1.2.9.6 1.6 1.3 2.2 2.1.7 1 1.2 2.2 1.6 3.4.4 1.6.6 3.3.6 5v1.4c0 1.8-.1 3.7-.5 5.4-.3 1.3-.8 2.6-1.5 3.8-.5 1-1.3 1.8-2.1 2.5-.8.6-1.6 1.1-2.5 1.4-.8.3-1.7.5-2.6.6-.8.1-1.6.1-2.5.1h-.6v12.1h-6V14.6zm6.4 23.2c.9 0 1.9-.1 2.7-.5.7-.3 1.4-.8 1.8-1.5.5-.8.8-1.7 1-2.6.2-1.3.3-2.5.3-3.8v-3.6c0-1-.1-2-.3-3.1-.1-.8-.5-1.5-.9-2.1-.5-.6-1.1-1-1.8-1.2-.9-.3-1.9-.4-2.8-.4h-.3v18.8h.3zM121.8 14.6h6.9l7.3 39.7h-6l-1.1-7.1h-7.2l-1 7.1h-6.1l7.2-39.7zm6.4 28l-2.8-19.8h-.3l-2.8 19.8h5.9zM139.9 14.6h6.5c.7 0 1.6 0 2.5.1.9.1 1.8.2 2.7.5.9.2 1.8.6 2.6 1.1.9.5 1.6 1.2 2.2 2 .7.9 1.2 2 1.5 3.2.4 1.5.6 3 .6 4.6v1c0 3-.4 5.5-1.3 7.4-.8 1.8-2.1 3.2-3.9 4.1l6.4 15.9h-6.4L148 39.6h-2.3v14.8h-5.9V14.6zm6.8 20.4c.9 0 1.8-.1 2.7-.4.7-.2 1.3-.6 1.8-1.2s.8-1.4 1-2.2c.2-1.1.3-2.2.3-3.4v-3.1c0-.9-.1-1.8-.3-2.7-.2-.7-.5-1.3-.9-1.8-.5-.5-1.1-.9-1.8-1.1-.9-.3-1.8-.4-2.7-.3h-.9V35h.8zM162.8 46.2c0-.8 0-1.6.2-2.4.1-.7.2-1.5.5-2.3h4.7v1.9c0 .9.1 1.9.2 2.8.1.7.3 1.4.7 2.1.3.5.7 1 1.2 1.3.6.3 1.2.5 1.8.4 1.1 0 2-.3 2.6-.9.6-.6.9-1.5.9-2.8 0-.6 0-1.1-.1-1.7-.1-.5-.2-1-.4-1.5-.2-.6-.5-1.1-.8-1.6-.4-.7-.9-1.3-1.4-1.9l-6.3-7.5c-1-1.3-1.9-2.8-2.6-4.3-.6-1.5-.9-3-.9-4.6 0-1.2.2-2.5.6-3.6.4-1.1 1-2 1.8-2.8.8-.8 1.8-1.4 2.9-1.8 1.2-.5 2.5-.7 3.9-.7 1.5 0 3 .2 4.4.7 1.1.4 2 1.1 2.8 2 .7.8 1.2 1.7 1.5 2.7.3 1 .4 2 .4 3 0 .8-.1 1.6-.2 2.4-.1.7-.3 1.5-.5 2.4h-4.6v-1.9c0-2.1-.3-3.7-.9-4.8-.6-1.1-1.6-1.7-3-1.7-1.1 0-2 .3-2.5.9-.6.7-.9 1.6-.8 2.5 0 .5 0 1 .1 1.5.1.4.2.8.4 1.2.2.4.4.8.6 1.1.2.4.5.7.8 1.1l7 8.5c1.2 1.5 2.1 3.1 2.9 4.8.7 1.5 1 3.2 1 4.8 0 1.3-.2 2.6-.7 3.8-.4 1.1-1.1 2.1-1.9 2.9-.9.8-1.9 1.4-3 1.8-1.3.4-2.6.7-3.9.6-1.8 0-3.3-.2-4.5-.7-1.1-.4-2-1.1-2.8-1.9-.7-.8-1.2-1.7-1.5-2.7-.5-1-.6-2-.6-3.1zM186.5 14.6h14.7v4.7h-8.7v11.9h6.7v4.7h-6.7v13.6h8.9v4.7h-14.9V14.6zM214.3 54.6c-.7 0-1.3-.1-2-.2s-1.5-.3-2.2-.6c-.8-.3-1.5-.8-2.1-1.4-.7-.7-1.3-1.5-1.7-2.4-.6-1.1-1-2.4-1.2-3.6-.3-1.7-.5-3.4-.5-5.1v-14c0-1.7.1-3.4.5-5.1.2-1.2.7-2.4 1.2-3.6.4-.9 1-1.7 1.8-2.3.6-.5 1.3-1 2.1-1.3.7-.3 1.4-.5 2.1-.6.7-.1 1.3-.1 2-.1 1.4 0 2.7.2 4 .7 1 .4 1.9 1 2.6 1.8.7.8 1.1 1.7 1.4 2.7.3 1.1.4 2.2.4 3.3 0 .8 0 1.6-.1 2.4-.1.7-.2 1.5-.4 2.4h-4.9v-2c0-2.2-.2-3.8-.7-4.9s-1.2-1.6-2.1-1.6c-.5 0-1 .1-1.5.3-.5.3-.8.6-1 1.1-.3.6-.5 1.3-.6 2.1-.2 1.1-.2 2.1-.2 3.2v18.1c0 1 0 2.1.2 3.1.1.7.3 1.4.6 2 .2.5.6.8 1 1.1.5.2 1 .3 1.5.3.4 0 .8-.1 1.1-.3.4-.2.7-.5.9-.8.3-.4.5-.9.7-1.4.2-.7.3-1.4.2-2.1v-3.9h5.5v3.7c0 3.2-.7 5.5-2.2 7.1-1.5 1.1-3.6 1.9-6.4 1.9zM228.8 39.7h2.3v13.1h3.1v1.8h-5.3V39.7zM239.7 39.7h2.6l2.8 14.9h-2.3l-.4-2.7h-2.7l-.4 2.7H237l2.7-14.9zm2.4 10.5l-1-7.4h-.1l-1.1 7.4h2.2zM248.9 39.7h3.3c.4 0 .7.1 1.1.1.3.1.7.2 1 .3.3.1.6.3.8.6l.6.9c.1.4.2.9.2 1.3v.7c0 .4-.1.7-.2 1.1-.1.3-.3.6-.4.9-.2.2-.4.5-.6.6-.2.2-.5.3-.7.3v.1c.7.1 1.3.5 1.7 1.1.4.7.6 1.4.6 2.2v.8c0 .5-.1.9-.2 1.4-.1.4-.3.7-.5 1-.2.3-.5.5-.8.7-.3.2-.6.3-1 .4-.4.1-.8.2-1.1.2-.4 0-.8.1-1.2.1h-2.4l-.2-14.8zm2.7 6.4c.3 0 .6 0 .8-.1.2-.1.5-.2.6-.3.2-.2.3-.4.4-.6.1-.3.2-.6.1-.9v-.6c0-.3 0-.6-.1-.9-.1-.3-.2-.5-.3-.7-.2-.2-.4-.3-.6-.4-.3-.1-.6-.2-.9-.1h-.4v4.7l.4-.1zm.2 6.9c.3 0 .6 0 .8-.1.2-.1.5-.2.6-.4.2-.2.3-.4.4-.6.1-.3.1-.6.1-.9v-1.2c0-.3 0-.6-.1-.9-.1-.3-.2-.5-.3-.7-.2-.2-.4-.3-.6-.4-.3-.1-.6-.2-.9-.1h-.6V53h.6zM260 51.6c0-.3 0-.6.1-.9 0-.3.1-.6.2-.9h1.8v.7c0 .4 0 .7.1 1.1 0 .3.1.5.2.8.1.2.3.4.5.5.2.1.5.2.7.2.4 0 .7-.1 1-.4.2-.3.4-.7.3-1v-.6c0-.2-.1-.4-.2-.6l-.3-.6c-.2-.2-.3-.5-.5-.7l-2.4-2.8c-.4-.5-.7-1-1-1.6-.2-.6-.3-1.1-.3-1.7 0-.5.1-.9.2-1.4.1-.4.4-.8.7-1.1.3-.3.7-.5 1.1-.7.5-.2 1-.3 1.4-.2.6 0 1.1.1 1.6.3.4.2.8.4 1.1.7.3.3.4.6.6 1 .1.4.2.7.2 1.1 0 .3 0 .6-.1.9-.1.3-.1.6-.2.9h-1.7v-.7c0-.6-.1-1.2-.3-1.8-.2-.4-.6-.7-1.1-.6-.4 0-.7.1-.9.4-.2.3-.3.6-.3.9v.6c0 .2.1.3.1.5.1.1.1.3.2.4.1.1.2.3.3.4l2.6 3.2c.4.6.8 1.1 1.1 1.8.3.6.4 1.2.4 1.8 0 .5-.1 1-.2 1.4-.2.4-.4.8-.7 1.1-.3.3-.7.5-1.1.7-.5.2-1 .2-1.5.2-.6 0-1.1-.1-1.7-.3-.4-.2-.8-.4-1.1-.7-.3-.3-.5-.6-.6-1-.3-.5-.3-.9-.3-1.3z"/>
        <title>
            parsec-type-blk
        </title>
        <path d="M64.4 3.7l-.2-.2h-.1c-1-.2-2.1-.3-3.1-.3-2.1 0-5 .4-6.8 2.2l-6.3 6.3-.7.7c-.6.2-1.6.5-3.8.5-4.2 0-5.6 1.5-7.5 3.4l-.4.4c-.2.2-.8.8 2.5 5l-3.7 3.6c-.2.2-.3.5-.3.7 0 .3.1.5.3.7l.3.3-.1.1c-.1.1-.2.3-.2.5-.2 0-.5.1-.6.2-.1.2-.2.4-.2.6-.4-.1-.8.1-1 .3-.2.2-.3.4-.3.7-.5-.2-1 0-1.3.3-.3.3-.4.7-.3 1-.4-.1-.8.1-1 .3-.1.1-.2.2-.2.3-.4-.2-.9-.1-1.3.2-.1.1-.2.2-.2.4-.1-.1-.1-.2-.2-.2-.5-.5-1.3-.5-1.8 0-.1.1-.1.1-.1.2-.7-.2-1.5-.2-2.2 0 0-.3-.2-.7-.4-.9-.2-.2-.4-.3-.7-.3-.3-.4-.6-.7-.9-1-.9-.8-1.9-1.4-3.1-1.7 0-.1 0-.2-.1-.2.6-2.2-.1-4.5-1.7-6.1-1.4-1.4-3.3-2-5.2-1.8.8-1.5 1-3.3.4-5 .7-.8 1.1-1.8 1.4-2.8C5.1 17.9 0 27 0 37.4c0 17 13.8 30.8 30.8 30.8 10 0 18.9-4.8 24.5-12.1-.8 0-1.6.1-2.4.4-.3-.8-.8-1.5-1.4-2.1-2.5-2.4-6.4-2.5-8.9-.1-.2-1.4-.8-2.8-1.8-3.8-.9-.9-2-1.5-3.2-1.7.1-1.5-.3-2.9-1.2-4.1.2-1.5-.2-3-1-4.2l.6-.3c.3-.3.4-.7.3-1.1.3 0 .6-.1.8-.3.3-.4.4-.8.3-1.3.4 0 .7-.1 1-.3.3-.3.4-.6.3-1 .2-.1.4-.2.5-.3.2-.2.3-.5.3-.8.1 0 .2-.1.2-.2.1-.1.2-.3.2-.4.2 0 .5-.1.6-.2.2-.2.2-.5.2-.7h.3c.2.1.4.2.6.2.3 0 .5-.1.7-.3l3.7-3.7c1 .7 3.5 2.6 4.5 2.6.2 0 .3 0 .5-.2l.4-.4c1.9-1.8 3.4-3.4 3.4-7.5 0-2.2.2-3.2.4-3.7l.8-.8 6.2-6.2c3.5-3.2 2.3-9.5 2.2-9.9zm-25 26.8c-.4.4-.4 1 0 1.4l.5.5c-.1.1-.2.3-.2.5-.5 0-.9.3-.9.8v.1s0 .1-.1.1c-.4-.1-.8.1-1.1.3-.3.2-.4.6-.3 1 0 0-.1 0-.1.1-.4 0-.8.1-1 .3-.3.2-.4.6-.3 1-.5-.2-1 0-1.3.3-.2.2-.3.4-.3.6-.5-.2-1-.1-1.4.2-.1.1-.2.3-.3.5-.5-.2-1.1-.3-1.7-.4l-.3-.6s-.1-.1-.2-.1c.1-.1.2-.2.3-.2.5-.5.5-1.3 0-1.8l-.1-.1.1-.1c.3-.3.4-.7.3-1.1.3 0 .7-.1.9-.3.3-.2.4-.6.3-1l.6-.3c.3-.4.4-.8.3-1.3.3 0 .6-.1.8-.3.3-.4.4-.8.3-1.3.1 0 .1 0 .2-.1.3.2.7.1.9-.2.2-.2.2-.5.2-.7h.1c.1-.1.1-.1.1-.2l.1.1c.4.4 1 .4 1.4 0l3.4-3.4c.4.5.7.8 1 1.1.3.3.7.6 1.1 1l-3.3 3.6zm15.1-15.8l1.8.4-2.7 1.6-4.7 2.7 3.3-3.6.3-.3.1-.2-.4-.1h-.1l-1.8-.6.7-.4 6.4-3.8-3.1 3.8-.4.5h.6zm4.4-5.8l-8.3 4.9-1.4.8 2.6.8-5 5.5.2-.2-4.8 4.8c-.3-.4-.7-.9-1.2-1.4l-.3-.3-4 4c-.1.1-.2.1-.3 0l-1.5-1.5c-.1-.1-.1-.2 0-.3l4.2-4.2-.2-.2-.1-.1c-1.3-1.6-2.6-3.7-2.6-4.2l.3-.3c1.8-1.8 3.1-3.1 7-3.2 1.9 0 3.4-.2 4.2-.6l1-1 6.2-6.1c1.7-1.7 4.3-2 6.2-2 .9 0 1.8.1 2.6.2l-4.8 4.6z"/>
        <path d="M36.9 7.6c.2 0 .3-.1.4-.3 0-.1.1-.1.1-.2 0-.3-.2-.5-.5-.5s-.5.2-.5.5.2.5.5.5z"/>
        <circle cx="61.7" cy="18" r=".5"/>
        <circle cx="40.3" cy="6.3" r=".4"/>
        <circle cx="18.6" cy="22.1" r=".4"/>
        <circle cx="26.1" cy="26.4" r=".9"/>
        <circle cx="41.1" cy="42.1" r=".3"/>
        <circle cx="48.3" cy="40.6" r=".7"/>
        <circle cx="69.4" cy="29.4" r=".5"/>
        <circle cx="60.2" cy="31" r=".6"/>
        <circle cx="71.4" cy="27.8" r=".3"/>
        <circle cx="71.5" cy="30.7" r=".3"/>
        <circle cx="48.8" cy=".7" r=".4"/>
        <path d="M59.5 43.8l-.2-1.9-.1 1.9-2 .2 2 .2.1 1.9.2-1.9 1.4-.2h.6l-.6-.1zM26.2 18.5l.6-5.9 5.8-.5-5.8-.5-.5-4.7-.1-1.1-.1 1.1-.4 4.7-5.8.5 5.8.5z"/>
    </g>
</svg>
